<svg width="1920" height="1146" viewBox="0 0 1920 1146" fill="none" xmlns="http://www.w3.org/2000/svg">
<rect width="1920" height="1146" fill="url(#paint0_linear_26_500)"/>
<g style="mix-blend-mode:color-burn">
<path fill-rule="evenodd" clip-rule="evenodd" d="M746.832 1146C683.424 1102.74 714.144 1043.75 821.568 1020.54C922.176 998.768 980.784 957.598 1023.17 901.73C1041.65 877.378 1076.88 857.58 1104 835.491C1156.42 792.889 1147.06 769.568 1067.38 736.248C1046.88 727.681 1027.39 717.31 1011.7 705.735C976.8 680.036 984 661.127 1034.16 647.461C1091.76 631.79 1136.06 600.676 1200.86 594.287C1249.87 589.445 1285.49 610.761 1324.75 623.223C1374.91 639.096 1422.53 657.403 1417.92 698.143C1416.29 712.755 1409.86 726.535 1393.54 737.766C1389.41 740.574 1379.81 743.353 1374.86 742.35C1359.26 739.199 1361.9 729.658 1361.71 722.553C1360.61 667.23 1316.06 627.406 1230.48 618.41C1174.61 612.566 1127.66 634.569 1087.3 655.684C1031.57 684.821 1032.91 706.452 1101.31 732.237C1154.64 752.32 1177.39 774.238 1163.9 811.053C1157.57 828.3 1153.01 848.842 1185.6 859.156C1220.93 870.33 1254.82 859.701 1284.1 848.212C1376.78 811.826 1447.87 765.07 1465.63 696.911C1475.28 659.924 1444.32 631.79 1393.39 613.683C1333.25 592.31 1277.33 560.91 1201.92 563.603C1131.36 566.124 1075.01 592.539 1017.17 614.571C989.28 625.172 961.968 636.689 928.128 639.382C909.696 640.843 892.32 637.262 882.96 627.779C865.92 610.446 876.096 592.711 888.768 576.61C936.192 516.474 1020.67 479.802 1115.9 449.805C1155.31 437.4 1193.66 423.533 1230.53 408.606C1249.2 401.043 1264.85 388.895 1256.64 374.054C1245.89 354.572 1215.26 349.96 1185.84 346.379C1128.34 339.359 1066.9 344.745 1012.8 327.04C995.232 321.281 973.152 315.838 971.808 302.63C970.56 290.454 992.544 286.729 1008 283.062C1074.67 267.161 1115.76 235.331 1155.22 201.868C1184.02 177.429 1231.63 164.709 1264.13 142.734C1312.61 109.901 1287.98 74.2321 1269.65 39.3651C1262.69 26.1861 1255.34 13.1217 1248.1 0H1299.94C1303.2 12.5774 1305.94 25.2407 1310.11 37.7034C1321.73 71.9975 1344 105.317 1329.6 141.617C1315.3 177.659 1260.82 182.615 1217.18 196.682C1194.58 203.988 1161.98 212.44 1178.4 231.721C1194.34 250.401 1224.24 241.376 1247.09 233.297C1268.5 225.733 1288.56 216.651 1308.24 207.483C1365.98 180.524 1406.69 148.608 1393.54 101.106C1384.08 66.8977 1357.63 35.0103 1354.08 0H1489.49C1463.9 2.4066 1431.17 0.9741 1431.36 21.4875C1431.6 42.1728 1469.57 38.1618 1490.64 35.4114C1553.14 27.1889 1605.02 37.5315 1652.74 60.738C1731.41 98.9858 1808.98 139.955 1920 108.268V141.703C1882.7 150.212 1845.07 150.327 1807.06 141.703C1745.33 127.693 1697.52 99.5301 1638.53 82.5693C1554.58 58.4747 1482.67 74.7479 1466.54 126.031C1453.63 167.087 1424.54 197.169 1360.85 217.31C1308.96 233.755 1310.26 253.782 1357.68 274.61C1384.9 286.557 1413.46 296.9 1425.98 317.872C1457.57 370.674 1432.03 419.35 1397.47 467.081C1362.77 515.041 1354.08 560.079 1422.29 601.048C1467.55 628.237 1496.16 660.669 1496.98 699.776C1498.32 761.804 1431.98 799.392 1357.63 833.4C1272.72 872.249 1189.25 910.067 1168.27 980.059C1152.29 1033.38 1188.72 1081.8 1268.78 1092.54C1321.49 1099.62 1375.54 1103.68 1424.69 1117.87C1455.02 1126.6 1484.4 1136.4 1514.02 1146H1412.93C1392.05 1136.29 1367.66 1130.67 1341.98 1126.78C1288.22 1118.55 1231.87 1116.66 1180.13 1103.54C1122.77 1088.99 1097.52 1035.84 1117.87 982.351C1125.46 962.382 1133.18 938.03 1091.9 926.255C1051.97 914.88 1024.27 930.265 1004.26 948.573C954.768 993.926 905.088 1036.79 815.136 1059.59C755.76 1074.66 751.968 1109.7 795.12 1135.06C797.856 1136.66 801.552 1137.75 804.816 1139.07C805.392 1136.8 806.112 1134.57 806.496 1132.31C809.472 1116.72 817.632 1102.25 846.672 1099.33C869.664 1097.01 874.992 1110.04 881.808 1119.67C888.432 1129.1 898.272 1136.4 916.08 1135.51C956.208 1133.57 996.096 1129.73 1036.22 1128.01C1104.34 1125.06 1170.38 1135.94 1237.34 1140.67C1253.9 1141.85 1271.23 1142.48 1287.17 1146H746.832ZM1221.36 478.054C1280.11 454.017 1330.13 423.533 1334.93 385.686C1334.93 346.378 1300.22 326.839 1245.94 327.326C1235.95 327.412 1218.19 329.962 1217.66 332.426C1216.18 339.245 1230.53 340.076 1238.98 342.826C1267.34 352.109 1301.23 360.073 1291.54 384.741C1280.98 411.615 1247.71 430.008 1211.9 445.25C1121.42 483.87 1024.13 517.247 947.568 566.496C929.568 578.042 900.048 592.196 922.32 609.557C937.776 621.619 961.68 609.93 975.744 601.65C1052.26 556.584 1132.32 514.468 1221.36 478.054ZM1343.28 476.736C1391.95 441.153 1428.34 401.043 1408.9 353.169C1376.21 272.576 1217.09 263.838 1113.22 296.843C1099.92 301.083 1081.1 307.157 1089.26 317.299C1097.66 327.67 1117.68 322.341 1132.61 319.791C1167.84 313.803 1202.5 306.44 1232.26 306.641C1291.25 306.584 1331.66 318.273 1355.62 346.436C1387.58 384.025 1342.8 447.685 1267.82 480.919C1217.66 503.151 1157.81 518.594 1121.47 551.197C1119.79 552.716 1119.36 554.779 1118.35 556.584C1121.23 556.268 1124.16 556.154 1126.85 555.638C1210.03 540.138 1287.02 517.82 1343.28 476.736Z" fill="#E4E1D9" fill-opacity="0.54"/>
<path d="M1191.84 0H1152.82C1177.25 17.6771 1196.21 36.8439 1201.15 60.4802C1207.3 89.9324 1196.59 117.093 1160.78 137.148C1097.14 172.731 1056.86 220.92 985.632 251.977C932.304 275.241 874.944 269.195 820.944 254.24C756.768 236.477 696 239.743 634.368 256.704C630.528 257.764 626.064 258.022 621.888 258.652C623.04 256.074 623.568 253.323 625.344 250.945C646.8 222.467 730.944 211.294 795.216 227.768C859.632 244.27 924.048 265.757 991.92 232.352C1038.19 209.546 1065.17 177.659 1101.12 150.011C1128.48 128.982 1166.4 111.248 1168.42 82.0823C1171.06 43.3188 1136.21 18.1068 1084.51 0H824.928C849.456 5.07105 873.888 10.2854 898.8 14.5256C945.984 22.5476 992.88 10.0562 1040.02 12.5774C1086.05 15.0413 1120.13 29.6814 1142.26 53.4609C1155.84 68.0724 1155.41 83.2282 1138.9 97.6679C1132.42 103.341 1124.02 106.836 1113.02 105.833C1099.87 104.658 1094.5 98.0976 1091.62 91.1357C1072.13 43.8632 1049.38 33.9216 970.8 46.9001C919.488 55.4091 881.472 39.4224 840.096 29.3663C750.24 7.53495 661.488 41.7431 661.056 99.3296C660.96 113.225 659.472 127.149 657.264 140.987C655.728 150.642 652.608 161.701 630.432 159.838C610.176 158.148 602.688 146.946 603.312 136.861C606.768 81.0222 624.72 16.13 734.496 0H652.944C596.256 42.8031 572.016 91.9092 580.896 146.23C584.208 166.542 602.928 185.537 643.104 182.013C686.64 178.203 680.88 153.392 685.488 134.77C693.84 100.991 685.776 62.8295 749.76 43.8918C792 31.4004 832.32 39.9954 866.64 55.667C896.208 69.2184 924.672 74.2608 962.976 71.8542C1047.7 66.5253 1078.08 91.6514 1057.54 144.854C1038.77 193.445 972.72 235.245 914.448 234.5C870.912 233.927 838.992 215.649 800.976 206.595C726.96 188.918 667.296 208.056 611.136 234.672C525.84 275.097 434.448 307.672 322.704 313.488C312.336 314.033 300 313.116 297.648 306.24C295.008 298.59 307.824 296.442 317.328 294.465C369.408 283.463 424.032 276.587 472.704 259.941C545.568 235.045 553.728 197.112 541.44 151.702C526.944 98.1549 547.296 47.2152 592.368 0H549.456C514.944 51.4554 520.032 106.005 515.712 159.896C513.216 191.267 501.84 221.379 463.68 244.786C384.672 293.175 265.92 291.141 178.176 241.348C166.224 234.586 150.528 220.92 133.056 229.658C115.344 238.511 133.008 249.771 143.76 258.681C151.152 264.755 158.4 270.943 166.944 276.415C212.112 305.466 252.576 339.502 331.296 334.976C379.056 332.197 416.352 314.548 457.536 302.601C546.72 276.759 636.672 310.108 636.672 369.442C636.672 442.814 510.768 494.556 383.808 478.713C295.968 467.74 218.16 440.838 130.944 429.951C81.888 423.819 22.8 443.817 10.56 473.126C0.288002 497.651 28.896 518.422 81.504 526.874C156.144 538.907 225.696 555.81 274.848 594.86C326.496 635.915 344.976 637.319 417.984 606.95C478.656 581.767 541.008 570.278 614.16 586.236C681.072 600.791 708.864 590.075 709.488 547.645C710.304 493.181 752.352 458.228 835.632 438.918C907.296 422.33 944.784 381.962 926.784 338.271C917.232 314.978 885.888 305.867 849.36 310.824C816.768 315.265 828.72 332.684 833.28 345.433C845.712 380.071 841.344 411.013 788.064 433.503C754.368 447.714 722.496 463.07 706.512 487.05C694.32 505.329 681.36 523.521 658.224 537.961C607.2 569.82 538.272 564.462 474.24 568.301C337.776 576.495 224.976 537.961 111.888 500.974C89.856 493.754 63.504 483.44 81.168 466.078C97.872 449.604 127.056 455.134 149.952 463.328C226.368 490.717 300.576 519.539 391.008 530.082C468.24 539.107 546.432 527.704 582.288 498.51C651.264 442.327 669.168 378.753 665.424 311.053C663.12 269.539 703.104 250.802 769.104 264.01C874.8 285.153 971.184 283.692 1051.06 230.948C1092.38 203.644 1124.74 171.384 1175.28 149.123C1219.49 129.699 1240.08 104.859 1231.44 71.5677C1224.91 46.2411 1207.34 23.3784 1191.84 0Z" fill="#E4E1D9" fill-opacity="0.54"/>
<path d="M1726.85 1081.88C1633.73 1032.46 1584.53 982.237 1661.38 914.881C1702.94 878.466 1795.87 866.061 1887.26 884.454C1897.97 886.632 1909.01 888.179 1920 889.84V828.673C1875.12 833.6 1830.1 838.041 1785.5 843.771C1668.29 858.784 1578.48 910.239 1569.07 978.455C1561.34 1034.55 1623.65 1070.94 1698.14 1099.87C1718.88 1107.95 1748.93 1116.06 1736.59 1135.74C1732.75 1141.87 1725.65 1144.83 1717.25 1146H1780.9C1791.55 1116.98 1758.53 1098.7 1726.85 1081.88Z" fill="#E4E1D9" fill-opacity="0.54"/>
<path d="M1326.43 1054.06C1418.35 1073 1494.43 1109.61 1581.55 1133.68C1597.1 1137.98 1612.8 1141.99 1628.54 1146H1693.49C1690.13 1145.71 1686.86 1145.34 1683.7 1144.97C1605.31 1135.74 1543.2 1110.3 1488.43 1076.18C1400.59 1021.43 1419.65 901.358 1523.38 858.096C1581.02 834.059 1637.04 808.56 1692 782.403C1708.22 774.667 1723.25 759.168 1704.24 749.656C1684.51 739.772 1676.26 757.162 1664.54 764.353C1643.14 777.418 1623.65 792.259 1598.98 802.63C1503.7 842.683 1417.82 886.345 1394.26 959.661C1390.08 972.582 1380.62 986.047 1353.07 981.664C1331.66 978.254 1330.46 965.247 1334.3 954.074C1355.42 892.82 1423.63 851.593 1501.25 814.176C1545.5 792.86 1599.36 776.501 1620.48 742.035C1637.95 713.614 1613.14 685.967 1610.93 657.747C1609.1 634.426 1616.59 608.669 1591.15 588.929C1572.14 574.232 1538.93 565.952 1520.83 551.026C1472.26 510.887 1488.86 465.677 1507.1 422.817C1527.22 375.659 1545.12 329.647 1526.21 280.541C1508.5 234.644 1509.55 188.632 1544.93 144.94C1551.07 137.348 1560.67 130.272 1576.7 132.306C1593.26 134.397 1595.42 143.164 1595.33 151.788C1595.04 187.256 1577.23 221.808 1583.33 257.821C1589.09 291.628 1626.91 316.497 1670.02 310.394C1744.94 299.765 1827.65 323.057 1854.38 365.832C1880.88 408.291 1866.05 454.676 1882.18 498.395C1889.76 519.023 1894.85 540.224 1920 556.24V488.912C1906.08 466.307 1902.72 442.27 1901.9 418.634C1899.36 344.258 1842.91 296.27 1722.53 273.693C1645.49 259.225 1619.28 228.312 1624.08 165.998C1625.76 143.852 1638 117.694 1587.98 111.534C1541.71 105.833 1529.38 131.475 1515.7 151.1C1496.35 178.833 1467.02 201.753 1432.9 223.585C1398.24 245.76 1434.77 261.861 1453.97 278.048C1517.62 331.652 1508.11 389.783 1466.4 443.273C1418.21 505.042 1438.99 550.911 1513.82 598.413C1589.57 646.487 1599.02 721.865 1541.76 767.906C1497.02 803.833 1427.23 824.375 1375.06 856.091C1312.94 893.851 1239.84 928.403 1228.46 985.503C1220.3 1026.33 1272.38 1042.92 1326.43 1054.06Z" fill="#E4E1D9" fill-opacity="0.54"/>
<path fill-rule="evenodd" clip-rule="evenodd" d="M1166.69 396.946C1090.66 424.221 1003.87 441.697 942.432 482.38C877.44 525.412 822.48 572.484 854.928 634.11C879.024 679.836 948.912 704.532 1006.32 734.328C1037.38 750.43 1079.23 761.947 1084.32 790.454C1088.16 811.998 1064.4 827.011 1042.18 841.049C995.184 870.731 974.112 909.895 935.04 942.356C901.488 970.261 847.536 975.217 798.528 985.159C687.168 1007.74 626.88 1078.64 681.072 1146H620.928C578.352 1087.93 650.448 1016.47 727.968 991.147C833.376 956.709 938.976 923.504 1002.48 856.75C1051.01 805.753 1052.88 770.255 992.112 740.889C947.712 719.43 900.624 699.748 863.856 673.132C858 668.92 853.296 664.136 847.2 660.067C844.512 658.32 839.616 657.747 835.68 656.629C833.952 661.557 829.728 666.714 830.88 671.384C838.32 700.722 881.424 711.236 915.12 726.306C961.728 747.163 1010.83 767.276 997.872 808.589C980.256 864.944 913.632 897.289 834.624 922.473C775.056 941.468 706.848 952.125 657.696 981.119C580.704 1026.53 530.112 1078.59 556.992 1146H375.792C327.312 1122.71 286.8 1094.75 249.024 1065.49C193.392 1022.38 130.368 1015.16 56.64 1045.55C31.728 1055.81 16.512 1070.85 0 1085.26V1044.12C55.728 1015.87 114.336 992.293 193.296 1009.57C238.56 1019.48 268.224 1041.91 300.192 1061.85C338.016 1085.41 376.224 1109.3 436.608 1103.68C503.424 1097.47 533.568 1067.41 547.584 1031.69C573.6 965.476 657.936 938.574 754.08 919.321C826.032 904.91 899.472 892.591 942.192 849.902C988.32 803.776 966.24 757.019 864.912 722.668C751.104 684.105 627.264 668.634 499.728 700.922C475.152 707.139 456.192 720.949 433.776 730.518C415.008 738.511 393.84 742.207 374.064 732.094C344.112 716.766 340.032 697.026 363.696 679.492C413.568 642.476 468 606.32 557.328 609.729C598.896 611.334 639.456 621.017 680.832 625.773C727.632 631.188 752.976 617.379 753.84 588.385C754.56 565.694 751.68 542.402 759.168 520.456C769.872 489.056 815.136 475.389 860.64 466.021C938.592 449.948 973.392 416.456 980.4 369.585C981.84 359.959 990.912 352.08 1008.96 356.664C1059.6 369.585 1114.22 368.496 1166.74 374.656C1172.98 375.401 1182.19 378.753 1183.15 381.704C1185.5 388.809 1176 393.594 1166.69 396.946ZM872.832 489.141C854.832 482.208 836.016 489.944 822.096 497.908C789.12 516.731 791.712 542.316 789.744 566.726C785.088 587.096 786.288 608.784 774.576 627.607C751.728 664.451 699.504 651.1 662.064 641.531C564.576 616.577 482.592 624.484 412.992 672.53C399.312 681.927 380.16 692.986 392.496 706.051C399.648 713.586 416.832 705.993 425.088 700.779C498.048 654.71 579.696 648.063 677.856 672.129C751.92 690.293 807.696 669.379 818.976 624.484C828.432 586.637 839.568 549.65 871.008 515.7C878.736 507.334 890.448 495.96 872.832 489.141Z" fill="#E4E1D9" fill-opacity="0.54"/>
<path fill-rule="evenodd" clip-rule="evenodd" d="M882.048 846.149C838.656 875.974 774.192 876.604 716.832 886.431C597.072 906.887 527.76 955.764 483.024 1023.06C453.168 1068.01 397.632 1067.87 344.4 1031.23C243.504 961.838 136.176 941.897 0 1002.58V979.114C59.28 967.023 111.792 947.857 131.76 910.927C164.256 850.733 149.904 789.308 124.992 729.486C106.56 685.251 73.296 645.456 0 623.997V596.78C96.96 621.992 142.56 670.668 166.848 729.286C182.064 765.958 166.176 804.549 185.664 840.734C210.576 886.861 302.4 913.133 382.416 904.681C475.968 894.797 548.976 859.471 634.224 839.817C675.648 830.277 713.616 835.978 752.736 845.633C794.4 855.947 827.856 845.261 856.752 826.81C870.144 818.244 886.896 798.304 899.808 805.724C920.256 817.499 899.088 834.431 882.048 846.149ZM695.664 861.993C695.712 857.666 687.552 855.231 678.576 854.773C636.24 852.681 603.216 865.946 571.344 879.125C476.784 918.175 381.36 952.527 259.824 922.759C243.504 918.748 224.352 917.459 214.032 929.148C206.208 937.972 219.6 943.788 229.248 947.656C274.368 965.763 323.712 977.452 374.928 978.627C410.448 978.512 440.4 973.813 467.568 964.273C543.696 937.514 604.848 898.006 683.568 873.309C689.568 871.447 695.616 865.86 695.664 861.993Z" fill="#E4E1D9" fill-opacity="0.54"/>
<path d="M813.312 738.683C721.488 715.276 624.432 723.728 529.008 728.14C509.568 729.057 489.168 739.772 492.96 753.782C495.504 763.035 516.48 761.603 528.816 759.827C597.936 749.828 667.536 743.611 738.432 750.315C759.456 752.292 791.856 750.802 791.76 768.68C791.712 787.302 760.992 785.87 739.008 784.724C673.92 781.286 609.792 777.045 545.376 790.368C410.304 818.301 330.912 797.673 297.36 714.732C257.712 616.749 157.296 565.752 0 547.587V563.202C1.056 563.316 2.112 563.431 3.168 563.631C135.744 588.843 241.584 682.328 248.304 778.363C250.464 809.076 260.16 839.76 309.696 856.692C366.384 876.06 419.52 861.42 467.376 843.284C555.984 809.678 642 777.819 754.848 805.323C785.424 812.772 824.88 804.148 841.392 782.804C855.6 764.468 841.728 745.903 813.312 738.654V738.683Z" fill="#E4E1D9" fill-opacity="0.54"/>
<path d="M570.384 332.197C546.192 311.168 495.552 308.589 451.44 327.269C415.44 342.511 385.392 363.597 336.912 365.488C260.832 368.439 212.208 340.419 164.064 311.454C98.64 272.06 79.536 269.74 0 294.006V332.34C75.408 309.993 131.472 338.643 191.616 359.586C298.368 396.774 367.152 392.362 471.312 344.344C485.856 337.64 505.632 328.243 520.608 338.414C538.704 350.733 523.248 364.743 507.216 374.14C435.312 416.37 347.952 417.459 255.84 406.973C194.016 399.925 144.624 375.057 84.336 366.262C53.424 361.735 26.352 368.038 0 376.289V411.5C29.424 397.204 62.256 385.543 100.848 392.62C162.48 403.908 221.136 421.241 283.104 431.555C369.072 445.794 456.816 456.738 538.944 421.9C585.12 402.332 601.008 358.841 570.384 332.197Z" fill="#E4E1D9" fill-opacity="0.54"/>
<path fill-rule="evenodd" clip-rule="evenodd" d="M1920 698.458C1835.04 739.686 1787.66 743.467 1716.72 714.989C1668.58 695.679 1653.5 666.37 1649.81 633.537C1647.02 608.497 1660.75 582.397 1638.67 558.56C1623.41 542.144 1586.59 541.743 1569.22 527.017C1536.96 499.656 1547.86 468.8 1549.68 438.402C1552.51 390.786 1602 351.077 1669.01 345.146C1747.78 338.156 1815.84 371.877 1824 420.439C1832.98 473.814 1834.51 528.535 1885.1 575.922C1894.7 584.947 1907.71 592.654 1920 600.647V698.458ZM1906.46 654.051C1905.07 626.805 1875.6 606.692 1854.19 584.46C1809.74 538.305 1818.72 484.873 1799.38 435.279C1780.85 387.692 1727.86 360.073 1670.59 369.47C1597.49 381.503 1553.04 441.353 1576.85 490.889C1588.61 515.242 1626.29 517.963 1652.5 530.569C1698.48 552.716 1683.98 584.861 1684.18 614.199C1684.56 640.127 1689.17 665.683 1716.43 687.056C1747.1 711.093 1787.04 724.788 1838.88 716.45C1891.15 707.999 1908.05 683.789 1906.46 654.051Z" fill="#E4E1D9" fill-opacity="0.54"/>
<path d="M391.92 0H311.04C295.536 17.4192 278.304 34.4086 265.872 52.5727C244.704 83.4574 260.736 108.211 307.248 126.604C325.008 133.624 346.8 139.783 347.232 155.111C347.376 158.922 340.032 165.225 334.08 166.256C306.72 171.012 284.4 162.818 266.208 152.16C192.624 109.071 180.624 55.7242 230.928 2.09145C231.552 1.4325 232.08 0.71625 232.56 0H196.128C159.6 46.7854 177.264 122.536 236.016 160.125C264.96 178.69 299.232 193.645 344.256 182.329C382.848 172.645 384.96 150.097 383.328 129.154C380.064 85.8927 375.168 42.6885 391.92 0Z" fill="#E4E1D9" fill-opacity="0.54"/>
<path d="M1920 179.578C1858.75 198.487 1807.97 182.329 1756.13 160.984C1734.62 152.16 1705.92 125.716 1679.57 151.902C1659.02 172.272 1670.11 198.229 1698.53 217.74C1735.73 243.21 1791.74 249.914 1838.16 266.216C1869.7 277.246 1895.76 291.657 1920 307.443V179.578Z" fill="#E4E1D9" fill-opacity="0.54"/>
<path d="M493.248 0H455.52C453.504 3.46665 451.44 6.9333 449.952 10.4859C429.168 59.5633 446.112 110.131 433.056 159.552C424.128 193.33 381.024 225.332 329.52 230.69C282.864 235.589 243.168 223.928 217.824 200.922C150.576 139.927 118.32 73.344 135.792 0H96C94.608 4.1256 92.928 8.27985 93.456 12.3195C102.48 85.5202 139.44 155.226 203.568 215.964C255.552 265.156 349.872 279.939 425.76 224.874C475.536 188.718 481.68 145.828 482.304 101.536C482.784 67.614 475.008 33.2053 493.248 0Z" fill="#E4E1D9" fill-opacity="0.54"/>
<path d="M1585.1 1081.62C1489.44 1011.66 1496.4 935.766 1602.1 871.476C1689.94 818.072 1806.29 805.896 1920 789.451V740.144C1804.32 762.462 1714.13 810.623 1614.77 849.386C1446.86 914.938 1443.79 1038.65 1607.47 1105.12C1612.85 1107.29 1618.94 1108.84 1624.75 1110.7C1620.96 1107.81 1617.31 1104.86 1613.42 1102.02C1604.06 1095.2 1594.42 1088.47 1585.1 1081.62Z" fill="#E4E1D9" fill-opacity="0.54"/>
<path d="M1735.2 1038.79C1792.9 1066.21 1844.59 1096.95 1836.19 1146H1888.61C1876.42 1094.69 1827.55 1057.27 1759.97 1026.07C1725.41 1010.11 1702.66 988.511 1715.71 961.036C1728.82 933.532 1764.05 922.415 1810.46 923.791C1852.66 925.051 1884.82 940.637 1920 951.839V924.278C1900.66 920.095 1880.98 916.342 1862.54 911.013C1799.18 892.648 1728.05 902.303 1695.7 934.42C1661.28 968.571 1680.43 1012.83 1735.2 1038.79Z" fill="#E4E1D9" fill-opacity="0.54"/>
<path d="M74.208 741.863C64.848 712.153 45.504 684.449 0 667.23V707.512C38.4 737.766 43.008 773.665 43.92 809.993C44.592 835.09 32.208 857.179 0 873.882V935.079C28.56 928.632 47.712 915.539 60.816 899.782C103.44 848.527 90.864 794.866 74.208 741.863Z" fill="#E4E1D9" fill-opacity="0.54"/>
<path d="M103.872 133.853C85.968 89.2161 42.432 48.1034 49.248 0H20.592C12.96 33.2913 37.92 62.5716 54.96 92.7401C83.664 143.565 65.04 187.715 0 220.863V255.501C70.32 246.419 123.552 182.844 103.872 133.853Z" fill="#E4E1D9" fill-opacity="0.54"/>
<path d="M65.088 1146C77.328 1115.92 104.016 1093.14 162.576 1094.66C213.744 1096.01 235.968 1125.03 268.608 1143.59C269.952 1144.34 271.2 1145.17 272.448 1146H306.528C291.552 1134.83 276.912 1123.51 260.928 1112.88C227.856 1090.99 201.696 1061.91 145.68 1059.48C71.088 1056.24 39.264 1101.62 21.696 1146H65.088Z" fill="#E4E1D9" fill-opacity="0.54"/>
<path d="M1920 23.2351C1896.1 32.9475 1874.88 45.2383 1845.55 49.6791C1783.1 59.1622 1738.13 40.2246 1695.17 17.4478C1683.89 11.46 1672.18 5.75865 1660.61 0H1560.86C1606.66 4.2402 1644.67 19.3101 1681.25 36.1563C1753.54 69.5049 1826.3 100.877 1920 67.1269V23.2351Z" fill="#E4E1D9" fill-opacity="0.54"/>
<path d="M1747.92 0C1766.45 11.5173 1786.27 22.2324 1814.59 23.493C1845.7 24.8682 1864.32 12.8065 1881.5 0H1747.92Z" fill="#E4E1D9" fill-opacity="0.54"/>
<path d="M18.864 106.893C15.744 92.6541 13.104 77.8707 0 65.2074V177.544C0.24 177.401 0.432 177.258 0.624 177.114C22.464 155.197 24.144 131.074 18.864 106.893Z" fill="#E4E1D9" fill-opacity="0.54"/>
<path d="M210.432 1146C199.44 1135.57 185.088 1126.83 163.68 1126.35C141.6 1125.86 128.688 1134.68 121.008 1146H210.432Z" fill="#E4E1D9" fill-opacity="0.54"/>
<path d="M1306.66 729.859C1302.14 751.346 1305.02 780.369 1254.91 791.972C1222.7 799.45 1229.95 781.228 1227.5 771.344C1220.88 744.957 1194.82 726.707 1160.16 711.637C1147.44 706.108 1126.66 701.896 1130.26 690.895C1135.2 675.768 1159.3 669.264 1181.14 664.537C1258.61 647.748 1306.66 671.441 1306.66 729.859Z" fill="#E4E1D9" fill-opacity="0.54"/>
<path d="M787.728 370.043C789.216 393.45 777.744 411.958 735.648 418.548C709.584 422.645 704.688 411.5 705.12 400.785C706.272 369.413 709.104 338.07 712.608 306.756C713.472 299.077 717.36 289.537 734.064 289.05C758.016 288.334 763.728 301.083 770.112 311.024C782.256 329.876 788.064 349.702 787.728 370.043Z" fill="#E4E1D9" fill-opacity="0.54"/>
<path d="M899.136 204.847C855.264 188.517 800.064 173.075 755.952 150.097C716.64 129.613 728.64 80.1913 768.096 70.4503C806.16 61.0818 830.448 79.1886 856.56 90.6772C886.752 103.914 917.856 109.157 955.872 105.346C1009.06 99.9885 1022.83 111.305 1006.13 146.659C992.4 175.796 963.792 197.656 899.136 204.847Z" fill="#E4E1D9" fill-opacity="0.54"/>
<path d="M976.032 1101.08C936.24 1099.76 931.344 1087.44 946.8 1069.71C967.968 1045.47 990 1021.46 1012.75 997.765C1019.62 990.602 1029.07 981.664 1045.25 983.898C1064.26 986.534 1070.98 998.137 1069.92 1007.68C1067.14 1032.92 1070.4 1059.48 1042.32 1081.25C1025.52 1094.26 1001.52 1099.59 976.032 1101.08Z" fill="#E4E1D9" fill-opacity="0.54"/>
<path d="M1734.96 606.234C1736.26 570.565 1745.86 533.864 1698.62 504.355C1677.65 491.262 1640.35 489.972 1627.82 471.436C1611.89 447.885 1640.3 416.113 1686.43 411.643C1737.31 406.715 1741.63 435.022 1751.23 454.389C1775.81 504.039 1767.46 558.417 1810.61 605.546C1826.06 622.45 1848.34 637.491 1853.52 657.145C1856.45 668.433 1850.74 679.492 1830.38 683.245C1794.05 689.978 1771.87 677.114 1753.97 660.698C1735.87 644.109 1733.28 625.401 1734.96 606.234Z" fill="#E4E1D9" fill-opacity="0.54"/>
</g>
<defs>
<linearGradient id="paint0_linear_26_500" x1="960" y1="-7.98889e-07" x2="944" y2="1504" gradientUnits="userSpaceOnUse">
<stop offset="0.466885" stop-color="#19A6E2"/>
<stop offset="1" stop-color="#0E5B7C"/>
</linearGradient>
</defs>
</svg>
