<svg width="474" height="242" viewBox="0 0 474 242" fill="none" xmlns="http://www.w3.org/2000/svg">
<circle cx="5" cy="5" r="5" fill="#F7CD47"/>
<circle cx="34" cy="5" r="5" fill="#F7CD47"/>
<circle cx="63" cy="5" r="5" fill="#F7CD47"/>
<circle cx="92" cy="5" r="5" fill="#F7CD47"/>
<circle cx="121" cy="5" r="5" fill="#F7CD47"/>
<circle cx="150" cy="5" r="5" fill="#F7CD47"/>
<circle cx="179" cy="5" r="5" fill="#F7CD47"/>
<circle cx="208" cy="5" r="5" fill="#F7CD47"/>
<circle cx="237" cy="5" r="5" fill="#F7CD47"/>
<circle cx="266" cy="5" r="5" fill="#F7CD47"/>
<circle cx="295" cy="5" r="5" fill="#F7CD47"/>
<circle cx="324" cy="5" r="5" fill="#F7CD47"/>
<circle cx="353" cy="5" r="5" fill="#F7CD47"/>
<circle cx="382" cy="5" r="5" fill="#F7CD47"/>
<circle cx="411" cy="5" r="5" fill="#F7CD47"/>
<circle cx="440" cy="5" r="5" fill="#F7CD47"/>
<circle cx="469" cy="5" r="5" fill="#F7CD47"/>
<circle cx="5" cy="34" r="5" fill="#F7CD47"/>
<circle cx="34" cy="34" r="5" fill="#F7CD47"/>
<circle cx="63" cy="34" r="5" fill="#F7CD47"/>
<circle cx="92" cy="34" r="5" fill="#F7CD47"/>
<circle cx="121" cy="34" r="5" fill="#F7CD47"/>
<circle cx="150" cy="34" r="5" fill="#F7CD47"/>
<circle cx="179" cy="34" r="5" fill="#F7CD47"/>
<circle cx="208" cy="34" r="5" fill="#F7CD47"/>
<circle cx="237" cy="34" r="5" fill="#F7CD47"/>
<circle cx="266" cy="34" r="5" fill="#F7CD47"/>
<circle cx="295" cy="34" r="5" fill="#F7CD47"/>
<circle cx="324" cy="34" r="5" fill="#F7CD47"/>
<circle cx="353" cy="34" r="5" fill="#F7CD47"/>
<circle cx="382" cy="34" r="5" fill="#F7CD47"/>
<circle cx="411" cy="34" r="5" fill="#F7CD47"/>
<circle cx="440" cy="34" r="5" fill="#F7CD47"/>
<circle cx="469" cy="34" r="5" fill="#F7CD47"/>
<circle cx="5" cy="63" r="5" fill="#F7CD47"/>
<circle cx="34" cy="63" r="5" fill="#F7CD47"/>
<circle cx="63" cy="63" r="5" fill="#F7CD47"/>
<circle cx="92" cy="63" r="5" fill="#F7CD47"/>
<circle cx="121" cy="63" r="5" fill="#F7CD47"/>
<circle cx="150" cy="63" r="5" fill="#F7CD47"/>
<circle cx="179" cy="63" r="5" fill="#F7CD47"/>
<circle cx="208" cy="63" r="5" fill="#F7CD47"/>
<circle cx="237" cy="63" r="5" fill="#F7CD47"/>
<circle cx="266" cy="63" r="5" fill="#F7CD47"/>
<circle cx="295" cy="63" r="5" fill="#F7CD47"/>
<circle cx="324" cy="63" r="5" fill="#F7CD47"/>
<circle cx="353" cy="63" r="5" fill="#F7CD47"/>
<circle cx="382" cy="63" r="5" fill="#F7CD47"/>
<circle cx="411" cy="63" r="5" fill="#F7CD47"/>
<circle cx="440" cy="63" r="5" fill="#F7CD47"/>
<circle cx="469" cy="63" r="5" fill="#F7CD47"/>
<circle cx="5" cy="92" r="5" fill="#F7CD47"/>
<circle cx="34" cy="92" r="5" fill="#F7CD47"/>
<circle cx="63" cy="92" r="5" fill="#F7CD47"/>
<circle cx="92" cy="92" r="5" fill="#F7CD47"/>
<circle cx="121" cy="92" r="5" fill="#F7CD47"/>
<circle cx="150" cy="92" r="5" fill="#F7CD47"/>
<circle cx="179" cy="92" r="5" fill="#F7CD47"/>
<circle cx="208" cy="92" r="5" fill="#F7CD47"/>
<circle cx="237" cy="92" r="5" fill="#F7CD47"/>
<circle cx="266" cy="92" r="5" fill="#F7CD47"/>
<circle cx="295" cy="92" r="5" fill="#F7CD47"/>
<circle cx="324" cy="92" r="5" fill="#F7CD47"/>
<circle cx="353" cy="92" r="5" fill="#F7CD47"/>
<circle cx="382" cy="92" r="5" fill="#F7CD47"/>
<circle cx="411" cy="92" r="5" fill="#F7CD47"/>
<circle cx="440" cy="92" r="5" fill="#F7CD47"/>
<circle cx="469" cy="92" r="5" fill="#F7CD47"/>
<circle cx="5" cy="121" r="5" fill="#F7CD47"/>
<circle cx="34" cy="121" r="5" fill="#F7CD47"/>
<circle cx="63" cy="121" r="5" fill="#F7CD47"/>
<circle cx="92" cy="121" r="5" fill="#F7CD47"/>
<circle cx="121" cy="121" r="5" fill="#F7CD47"/>
<circle cx="150" cy="121" r="5" fill="#F7CD47"/>
<circle cx="179" cy="121" r="5" fill="#F7CD47"/>
<circle cx="208" cy="121" r="5" fill="#F7CD47"/>
<circle cx="237" cy="121" r="5" fill="#F7CD47"/>
<circle cx="266" cy="121" r="5" fill="#F7CD47"/>
<circle cx="295" cy="121" r="5" fill="#F7CD47"/>
<circle cx="324" cy="121" r="5" fill="#F7CD47"/>
<circle cx="353" cy="121" r="5" fill="#F7CD47"/>
<circle cx="382" cy="121" r="5" fill="#F7CD47"/>
<circle cx="411" cy="121" r="5" fill="#F7CD47"/>
<circle cx="440" cy="121" r="5" fill="#F7CD47"/>
<circle cx="469" cy="121" r="5" fill="#F7CD47"/>
<circle cx="5" cy="150" r="5" fill="#F7CD47"/>
<circle cx="34" cy="150" r="5" fill="#F7CD47"/>
<circle cx="63" cy="150" r="5" fill="#F7CD47"/>
<circle cx="92" cy="150" r="5" fill="#F7CD47"/>
<circle cx="121" cy="150" r="5" fill="#F7CD47"/>
<circle cx="150" cy="150" r="5" fill="#F7CD47"/>
<circle cx="179" cy="150" r="5" fill="#F7CD47"/>
<circle cx="208" cy="150" r="5" fill="#F7CD47"/>
<circle cx="237" cy="150" r="5" fill="#F7CD47"/>
<circle cx="266" cy="150" r="5" fill="#F7CD47"/>
<circle cx="295" cy="150" r="5" fill="#F7CD47"/>
<circle cx="324" cy="150" r="5" fill="#F7CD47"/>
<circle cx="353" cy="150" r="5" fill="#F7CD47"/>
<circle cx="382" cy="150" r="5" fill="#F7CD47"/>
<circle cx="411" cy="150" r="5" fill="#F7CD47"/>
<circle cx="440" cy="150" r="5" fill="#F7CD47"/>
<circle cx="469" cy="150" r="5" fill="#F7CD47"/>
<circle cx="5" cy="179" r="5" fill="#F7CD47"/>
<circle cx="34" cy="179" r="5" fill="#F7CD47"/>
<circle cx="63" cy="179" r="5" fill="#F7CD47"/>
<circle cx="92" cy="179" r="5" fill="#F7CD47"/>
<circle cx="121" cy="179" r="5" fill="#F7CD47"/>
<circle cx="150" cy="179" r="5" fill="#F7CD47"/>
<circle cx="179" cy="179" r="5" fill="#F7CD47"/>
<circle cx="208" cy="179" r="5" fill="#F7CD47"/>
<circle cx="237" cy="179" r="5" fill="#F7CD47"/>
<circle cx="266" cy="179" r="5" fill="#F7CD47"/>
<circle cx="295" cy="179" r="5" fill="#F7CD47"/>
<circle cx="324" cy="179" r="5" fill="#F7CD47"/>
<circle cx="353" cy="179" r="5" fill="#F7CD47"/>
<circle cx="382" cy="179" r="5" fill="#F7CD47"/>
<circle cx="411" cy="179" r="5" fill="#F7CD47"/>
<circle cx="440" cy="179" r="5" fill="#F7CD47"/>
<circle cx="469" cy="179" r="5" fill="#F7CD47"/>
<circle cx="5" cy="208" r="5" fill="#F7CD47"/>
<circle cx="34" cy="208" r="5" fill="#F7CD47"/>
<circle cx="63" cy="208" r="5" fill="#F7CD47"/>
<circle cx="92" cy="208" r="5" fill="#F7CD47"/>
<circle cx="121" cy="208" r="5" fill="#F7CD47"/>
<circle cx="150" cy="208" r="5" fill="#F7CD47"/>
<circle cx="179" cy="208" r="5" fill="#F7CD47"/>
<circle cx="208" cy="208" r="5" fill="#F7CD47"/>
<circle cx="237" cy="208" r="5" fill="#F7CD47"/>
<circle cx="266" cy="208" r="5" fill="#F7CD47"/>
<circle cx="295" cy="208" r="5" fill="#F7CD47"/>
<circle cx="324" cy="208" r="5" fill="#F7CD47"/>
<circle cx="353" cy="208" r="5" fill="#F7CD47"/>
<circle cx="382" cy="208" r="5" fill="#F7CD47"/>
<circle cx="411" cy="208" r="5" fill="#F7CD47"/>
<circle cx="440" cy="208" r="5" fill="#F7CD47"/>
<circle cx="469" cy="208" r="5" fill="#F7CD47"/>
<circle cx="5" cy="237" r="5" fill="#F7CD47"/>
<circle cx="34" cy="237" r="5" fill="#F7CD47"/>
<circle cx="63" cy="237" r="5" fill="#F7CD47"/>
<circle cx="92" cy="237" r="5" fill="#F7CD47"/>
<circle cx="121" cy="237" r="5" fill="#F7CD47"/>
<circle cx="150" cy="237" r="5" fill="#F7CD47"/>
<circle cx="179" cy="237" r="5" fill="#F7CD47"/>
<circle cx="208" cy="237" r="5" fill="#F7CD47"/>
<circle cx="237" cy="237" r="5" fill="#F7CD47"/>
<circle cx="266" cy="237" r="5" fill="#F7CD47"/>
<circle cx="295" cy="237" r="5" fill="#F7CD47"/>
<circle cx="324" cy="237" r="5" fill="#F7CD47"/>
<circle cx="353" cy="237" r="5" fill="#F7CD47"/>
<circle cx="382" cy="237" r="5" fill="#F7CD47"/>
<circle cx="411" cy="237" r="5" fill="#F7CD47"/>
<circle cx="440" cy="237" r="5" fill="#F7CD47"/>
<circle cx="469" cy="237" r="5" fill="#F7CD47"/>
</svg>
